<svg width="25" height="25" viewBox="0 0 25 25" fill="none" xmlns="http://www.w3.org/2000/svg">
<path d="M12.791 14.6624C12.3768 14.6624 12.041 14.9982 12.041 15.4124C12.041 15.8266 12.3768 16.1624 12.791 16.1624V14.6624ZM12.801 16.1624C13.2152 16.1624 13.551 15.8266 13.551 15.4124C13.551 14.9982 13.2152 14.6624 12.801 14.6624V16.1624ZM12.791 16.1624H12.801V14.6624H12.791V16.1624Z" fill="#505A9A"/>
<path d="M11.1943 5.82378L11.7247 6.35411L11.1943 5.82378ZM6.20238 10.8157L5.67205 10.2854L6.20238 10.8157ZM6.20238 14.0091L6.73271 13.4787L6.20238 14.0091ZM11.1943 19.001L11.7247 18.4707L11.1943 19.001ZM14.3877 19.001L14.918 19.5314L14.3877 19.001ZM19.3796 10.8157L19.91 10.2854L19.3796 10.8157ZM14.3877 5.82378L14.918 5.29345L14.3877 5.82378ZM10.664 5.29345L5.67205 10.2854L6.73271 11.3461L11.7247 6.35411L10.664 5.29345ZM5.67205 14.5394L10.664 19.5314L11.7247 18.4707L6.73271 13.4787L5.67205 14.5394ZM14.918 19.5314L19.91 14.5394L18.8493 13.4787L13.8573 18.4707L14.918 19.5314ZM19.91 10.2854L14.918 5.29345L13.8573 6.35411L18.8493 11.3461L19.91 10.2854ZM19.91 14.5394C21.0847 13.3647 21.0847 11.4601 19.91 10.2854L18.8493 11.3461C19.4382 11.935 19.4382 12.8898 18.8493 13.4787L19.91 14.5394ZM10.664 19.5314C11.8387 20.7061 13.7433 20.7061 14.918 19.5314L13.8573 18.4707C13.2684 19.0596 12.3136 19.0596 11.7247 18.4707L10.664 19.5314ZM5.67205 10.2854C4.49734 11.4601 4.49734 13.3647 5.67205 14.5394L6.73271 13.4787C6.14379 12.8898 6.14379 11.935 6.73271 11.3461L5.67205 10.2854ZM11.7247 6.35411C12.3136 5.76519 13.2684 5.76519 13.8573 6.35411L14.918 5.29345C13.7433 4.11874 11.8387 4.11874 10.664 5.29345L11.7247 6.35411Z" fill="#505A9A"/>
<path d="M12.791 9.16241V12.6624" stroke="#505A9A" stroke-width="1.5" stroke-linecap="round" stroke-linejoin="round"/>
</svg>
