<svg width="25" height="25" viewBox="0 0 25 25" fill="none" xmlns="http://www.w3.org/2000/svg">
<path d="M6.41218 15.1467L7.51298 15.3191C8.32559 15.4463 8.90592 16.1906 8.84607 17.0291L8.76497 18.1656C8.74135 18.4967 8.91773 18.8084 9.20986 18.9526L10.024 19.3537C10.3162 19.4979 10.665 19.4439 10.9036 19.2192L11.7217 18.446C12.3249 17.8757 13.2556 17.8757 13.8595 18.446L14.6776 19.2192C14.9162 19.4448 15.2643 19.4979 15.5572 19.3537L16.3729 18.9518C16.6643 18.8084 16.8399 18.4975 16.8163 18.1673L16.7351 17.0291C16.6753 16.1906 17.2556 15.4463 18.0682 15.3191L19.169 15.1467C19.4895 15.0968 19.7478 14.8511 19.8202 14.5273L20.021 13.6268C20.0935 13.303 19.9651 12.9671 19.6974 12.7802L18.7785 12.1366C18.1005 11.6614 17.8934 10.7335 18.3029 10.0045L18.858 9.01695C19.0194 8.72939 18.9927 8.36934 18.7903 8.10998L18.2273 7.38746C18.0249 7.12809 17.6879 7.02097 17.3777 7.11843L16.3131 7.4519C15.5265 7.69837 14.6879 7.28516 14.3855 6.50304L13.9776 5.44544C13.8579 5.13614 13.5658 4.93316 13.2406 4.93396L12.3382 4.93638C12.013 4.93718 11.7217 5.14178 11.6036 5.45189L11.2059 6.4974C10.9067 7.28436 10.0642 7.70079 9.27521 7.4527L8.16654 7.10474C7.85551 7.00647 7.51692 7.1144 7.31456 7.37538L6.75549 8.0987C6.55313 8.36048 6.52872 8.72134 6.69329 9.00889L7.26101 9.99883C7.67913 10.7286 7.4744 11.6654 6.7925 12.1431L5.88461 12.7794C5.61689 12.9671 5.48855 13.303 5.56099 13.626L5.76178 14.5265C5.83343 14.8511 6.0917 15.0968 6.41218 15.1467Z" stroke="#505A9A" stroke-width="1.5" stroke-linecap="round" stroke-linejoin="round"/>
<path d="M14.3821 10.5929C15.2606 11.4715 15.2606 12.8965 14.3821 13.7751C13.5035 14.6536 12.0785 14.6536 11.1999 13.7751C10.3214 12.8965 10.3214 11.4715 11.1999 10.5929C12.0785 9.71432 13.5035 9.71432 14.3821 10.5929Z" stroke="#505A9A" stroke-width="1.5" stroke-linecap="round" stroke-linejoin="round"/>
</svg>
